<?xml version="1.0" encoding="utf-8"?>
<!-- Generator: Adobe Illustrator 22.0.1, SVG Export Plug-In . SVG Version: 6.00 Build 0)  -->
<svg version="1.1" id="Capa_1" xmlns="http://www.w3.org/2000/svg" xmlns:xlink="http://www.w3.org/1999/xlink" x="0px" y="0px"
	 viewBox="0 0 60 60" style="enable-background:new 0 0 60 60;" xml:space="preserve">
<style type="text/css">
	.st0{fill:#ADADAD;}
	.st1{fill:#252525;}
	.st2{fill:#545E73;}
	.st3{fill:#ECF0F1;}
	.st4{fill:#FFD700;}
	.st5{fill:#11A085;}
	.st6{fill:#26B999;}
	.st7{fill:#FF5F52;}
	.st8{fill:#FFFFFF;}
</style>
<g>
	<g>
		<rect x="1" y="4.5" class="st0" width="55" height="42"/>
		<path class="st1" d="M57,47.5H0v-44h57V47.5z M2,45.5h53v-40H2V45.5z"/>
	</g>
	<g>
		<rect x="5" y="8.5" class="st2" width="47" height="34"/>
		<path class="st3" d="M53,43.5H4v-36h49V43.5z M6,41.5h45v-32H6V41.5z"/>
	</g>
	<circle class="st4" cx="15" cy="17.1" r="4.6"/>
	<polygon class="st5" points="51,32.6 50,31.5 38,20.5 27.5,32 33,37.5 37,41.5 51,41.5 	"/>
	<polygon class="st6" points="6,41.5 37,41.5 33,37.5 22,26.5 6,40.5 	"/>
	<g>
		<circle class="st7" cx="48" cy="44.5" r="12"/>
		<path class="st8" d="M54,43.5h-5v-5c0-0.6-0.4-1-1-1s-1,0.4-1,1v5h-5c-0.6,0-1,0.4-1,1s0.4,1,1,1h5v5c0,0.6,0.4,1,1,1s1-0.4,1-1
			v-5h5c0.6,0,1-0.4,1-1S54.6,43.5,54,43.5z"/>
	</g>
</g>
</svg>
