<svg xmlns="http://www.w3.org/2000/svg" viewBox="0 0 65 65"><defs><style>.cls-1{fill:#fff;}.cls-2{fill:#635649;}.cls-3{fill:#ad8858;}.cls-4{fill:#070707;stroke:#0096e6;stroke-miterlimit:10;}.cls-5{fill:#f4e6ce;}.cls-6{fill:#cbb292;}.cls-7{fill:none;stroke:#7f6e5d;stroke-linecap:round;stroke-linejoin:round;stroke-width:2px;}.cls-8{fill:#ff5f52;}.cls-9{fill:#ffec4d;}.cls-10{fill:#423931;}</style></defs><title>drinks</title><g id="Layer_2" data-name="Layer 2"><g id="Layer_1-2" data-name="Layer 1"><circle class="cls-1" cx="32.5" cy="32.5" r="32.5"/><path class="cls-2" d="M48.47,27h0c-.32,4.88-7.94,8.78-17.31,8.78s-17-3.9-17.3-8.78h0a25.08,25.08,0,0,0-1.73,9.22c0,12.2,8.53,22.1,19.06,22.1s19.07-9.9,19.07-22.1A25.08,25.08,0,0,0,48.47,27Z"/><path class="cls-3" d="M37.44,19.84a34.91,34.91,0,0,0-6.31-.57C21.56,19.27,13.8,23,13.8,27.5s7.76,8.23,17.33,8.23,17.34-3.68,17.34-8.23c0-2.81-3-5.3-7.52-6.78"/><circle class="cls-4" cx="22.47" cy="27.07" r="0.87"/><path class="cls-5" d="M35.57,23a33.23,33.23,0,0,0-4.44-.3c-9,0-13.86,3.39-13.86,4.77s4.86,4.77,13.86,4.77S45,28.88,45,27.5c0-.89-2-2.6-5.85-3.71Z"/><circle class="cls-6" cx="25.93" cy="27.07" r="0.87"/><circle class="cls-6" cx="28.53" cy="28.8" r="0.87"/><circle class="cls-6" cx="29.4" cy="25.33" r="0.87"/><line class="cls-7" x1="16.96" y1="16.16" x2="22.47" y2="27.07"/><path class="cls-8" d="M34.58,29.89a1.73,1.73,0,0,1-1.51-2.58l9.52-16.26a4.43,4.43,0,0,1,7-.93l5.32,5.32a1.73,1.73,0,0,1-2.45,2.45l-5.32-5.32a.93.93,0,0,0-.81-.27.91.91,0,0,0-.7.47L36.09,29A1.74,1.74,0,0,1,34.58,29.89Z"/><path class="cls-9" d="M9.7,20.35c-.47-.83.17-2.09,1.14-2.65a1.89,1.89,0,0,1,2.62.49,1.9,1.9,0,0,1,.88-2.52,1.91,1.91,0,0,1,2.62.49,1.9,1.9,0,0,1,.88-2.51,1.89,1.89,0,0,1,2.62.49,1.89,1.89,0,0,1,.89-2.51,1.9,1.9,0,0,1,2.62.49A8.24,8.24,0,0,0,9.7,20.35Z"/><path class="cls-10" d="M31.13,35.73c-9.37,0-17-3.9-17.3-8.78h0a25.08,25.08,0,0,0-1.73,9.22c0,12.2,8.53,22.1,19.06,22.1S22.47,53.82,31.13,35.73Z"/></g></g></svg>