<svg xmlns="http://www.w3.org/2000/svg" viewBox="0 0 65 65"><defs><style>.cls-1{fill:#fff;}.cls-2{fill:gold;}.cls-3{fill:#d49837;}.cls-4{fill:#ffec4d;}.cls-5{fill:#e4af18;}.cls-6{fill:#f0c41b;}</style></defs><title>euros</title><g id="Layer_2" data-name="Layer 2"><g id="Layer_1-2" data-name="Layer 1"><circle class="cls-1" cx="32.5" cy="32.5" r="32.5"/><g id="_Group_" data-name="&lt;Group&gt;"><path id="_Path_" data-name="&lt;Path&gt;" class="cls-2" d="M50,33.17v1c0,5.74-9.64,10.39-21.52,10.39-6.56,0-12.43-1.42-16.37-3.66,1.33,5.17,10.37,9.45,21.34,9.45,11.88,0,21.51-5,21.51-10.76,0-2.52-1.87-4.74-5-6.45"/><path id="_Path_2" data-name="&lt;Path&gt;" class="cls-3" d="M33.49,50.38C21.6,50.38,12,45.36,12,39.62v7C12,52.35,21.6,57,33.49,57S55,52.35,55,46.61v-7c0,5.74-9.63,10.76-21.51,10.76"/><path id="_Path_3" data-name="&lt;Path&gt;" class="cls-3" d="M28.52,38C16.64,38,7,32.94,7,27.2v7c0,5.74,9.63,10.39,21.51,10.39S50,39.93,50,34.19v-7C50,32.94,40.4,38,28.52,38"/><path id="_Path_4" data-name="&lt;Path&gt;" class="cls-4" d="M49.47,36.56c-2.22,4.6-10.75,8-20.95,8A40.51,40.51,0,0,1,18,43.27c3,2,8.35,3.77,15.46,3.77,11.32,0,18.2-4.4,18.2-7.42,0-1-.78-2.08-2.22-3.06"/><path id="_Path_5" data-name="&lt;Path&gt;" class="cls-2" d="M32.66,36.31c-11.88,0-21.52-4.65-21.52-10.39V21.25C8.54,22.88,7,24.92,7,27.21,7,32.94,16.64,38,28.52,38a34.87,34.87,0,0,0,14.77-3,40.58,40.58,0,0,1-10.63,1.36"/><path id="_Path_6" data-name="&lt;Path&gt;" class="cls-5" d="M32.66,29.68c-11.88,0-21.52-5-21.52-10.75v7c0,5.73,9.64,10.38,21.52,10.38s21.51-4.65,21.51-10.38v-7c0,5.73-9.63,10.75-21.51,10.75"/><path id="_Path_7" data-name="&lt;Path&gt;" class="cls-2" d="M54.17,18.93c0,5.74-9.63,10.76-21.51,10.76s-21.52-5-21.52-10.76S20.78,9,32.66,9s21.51,4.2,21.51,9.93"/><path id="_Path_8" data-name="&lt;Path&gt;" class="cls-4" d="M32.66,26.35c-11.32,0-18.21-4.39-18.21-7.42s6.89-7.44,18.21-7.44,18.2,4.42,18.2,7.44S44,26.35,32.66,26.35"/><path id="_Path_9" data-name="&lt;Path&gt;" class="cls-6" d="M38.27,20.06c.68-.15,1.08-.56.93-1L39,18.51a1.54,1.54,0,0,0-1.11-.85c-.75-1.59-2.65-2.17-5.48-2.17h-.39a7.13,7.13,0,0,1-2.68-.33,3.22,3.22,0,0,1-.72-.35c-.07-.05-.25,0-.25,0a3.59,3.59,0,0,0,0,.43c.11.61,0,.52-.63,1.14A4.33,4.33,0,0,0,27,17.67a1.53,1.53,0,0,0-1.1.84l-.16.51c-.15.48.25.89.93,1a3.66,3.66,0,0,0,2.83,2.88l-.1.86a.72.72,0,0,1-.51.55l-3.65,1.31a35.14,35.14,0,0,0,7.24.72,35.17,35.17,0,0,0,7.16-.7L36,24.35a.72.72,0,0,1-.5-.54l-.1-.87a3.66,3.66,0,0,0,2.83-2.88"/><path id="_Path_10" data-name="&lt;Path&gt;" class="cls-5" d="M28.52,38C16.64,38,7,32.94,7,27.2v7c0,5.74,9.63,10.39,21.51,10.39a25.29,25.29,0,0,1,0-6.62"/></g></g></g></svg>