<?xml version="1.0" encoding="utf-8"?>
<!-- Generator: Adobe Illustrator 22.0.1, SVG Export Plug-In . SVG Version: 6.00 Build 0)  -->
<svg version="1.1" id="Capa_1" xmlns="http://www.w3.org/2000/svg" xmlns:xlink="http://www.w3.org/1999/xlink" x="0px" y="0px"
	 viewBox="0 0 57 57" style="enable-background:new 0 0 57 57;" xml:space="preserve">
<style type="text/css">
	.st0{fill:none;stroke:#252525;stroke-width:4;stroke-linecap:round;stroke-miterlimit:10;}
	.st1{fill:#FFD700;}
	.st2{fill:#252525;}
</style>
<path class="st0" d="M16.5,28V12.6C16.5,6.8,21.7,2,28,2l0,0c6.3,0,11.5,4.8,11.5,10.6V28H16.5z"/>
<rect x="7.5" y="25" class="st1" width="42" height="32"/>
<path class="st2" d="M28.5,45L28.5,45c-1.6,0-3-1.3-3-3v-6c0-1.7,1.4-3,3-3l0,0c1.6,0,3,1.3,3,3v6C31.5,43.7,30.1,45,28.5,45z"/>
<rect x="7.5" y="51" class="st2" width="42" height="6"/>
</svg>
