<svg xmlns="http://www.w3.org/2000/svg" viewBox="0 0 65 65"><defs><style>.cls-1{fill:#fff;}.cls-2{fill:#ff5f52;}</style></defs><title>free</title><g id="Layer_2" data-name="Layer 2"><g id="Layer_1-2" data-name="Layer 1"><circle class="cls-1" cx="32.5" cy="32.5" r="32.5"/><rect class="cls-1" x="12.02" y="13.64" width="40.97" height="39.53"/><path class="cls-2" d="M53.88,53.35H11.12V13H53.88Zm-41-1.79H52.08V14.8H12.92Z"/><path class="cls-2" d="M16.63,23.54h5.25v1.3H18.16v1.69h3.26v1.28H18.16V30.9H16.63Z"/><path class="cls-2" d="M29.49,23.72a1.86,1.86,0,0,1,.69.52,2.27,2.27,0,0,1,.37.62,2,2,0,0,1,.13.77,2.16,2.16,0,0,1-.26,1,1.49,1.49,0,0,1-.88.72,1.45,1.45,0,0,1,.73.58,2.47,2.47,0,0,1,.21,1.16v.49a3.53,3.53,0,0,0,0,.69.6.6,0,0,0,.28.42v.18H29.1c0-.16-.08-.29-.1-.39a3.39,3.39,0,0,1-.06-.64v-.68a1.44,1.44,0,0,0-.24-.94,1.24,1.24,0,0,0-.88-.24H26.3V30.9H24.8V23.53h3.52A3.15,3.15,0,0,1,29.49,23.72ZM26.3,24.81v2H28a1.74,1.74,0,0,0,.74-.12.84.84,0,0,0,.44-.83.93.93,0,0,0-.42-.9,1.52,1.52,0,0,0-.72-.13Z"/><path class="cls-2" d="M39.49,24.84h-3.9V26.4h3.58v1.28H35.59v1.9h4.08V30.9H34.09V23.53h5.4Z"/><path class="cls-2" d="M48.2,24.84H44.3V26.4h3.58v1.28H44.3v1.9h4.08V30.9H42.8V23.53h5.4Z"/><path class="cls-2" d="M16.62,43.19V35.82h1.53v2.81H21V35.82h1.53v7.37H21V39.9H18.15v3.29Z"/><path class="cls-2" d="M25.15,35.82h1.56v4.53a2.6,2.6,0,0,0,.18,1.11,1.2,1.2,0,0,0,1.22.62,1.19,1.19,0,0,0,1.21-.62,2.6,2.6,0,0,0,.18-1.11V35.82h1.56v4.53a3.86,3.86,0,0,1-.36,1.83,2.72,2.72,0,0,1-2.59,1.2,2.72,2.72,0,0,1-2.6-1.2,3.86,3.86,0,0,1-.36-1.83Z"/><path class="cls-2" d="M38.62,38.12a1.48,1.48,0,0,0-.85-1.06,2.15,2.15,0,0,0-.85-.16,1.83,1.83,0,0,0-1.46.67,3.06,3.06,0,0,0-.58,2,2.46,2.46,0,0,0,.63,1.92,2,2,0,0,0,1.41.57,1.83,1.83,0,0,0,1.27-.45,1.93,1.93,0,0,0,.61-1.16H37.09V39.24h3.07v3.95h-1L39,42.27a3.94,3.94,0,0,1-.8.74,2.83,2.83,0,0,1-1.5.37,3.16,3.16,0,0,1-2.41-1,3.87,3.87,0,0,1-1-2.79,4.13,4.13,0,0,1,1-2.87,3.37,3.37,0,0,1,2.61-1.08,3.44,3.44,0,0,1,2.26.71,2.69,2.69,0,0,1,1,1.78Z"/><path class="cls-2" d="M43.86,40.92a1.64,1.64,0,0,0,.28.75,1.67,1.67,0,0,0,1.32.46,2.8,2.8,0,0,0,.9-.12.87.87,0,0,0,.66-.86.63.63,0,0,0-.32-.56,3.56,3.56,0,0,0-1-.35l-.79-.17a5.14,5.14,0,0,1-1.62-.57,1.79,1.79,0,0,1-.75-1.59,2.15,2.15,0,0,1,.73-1.65,3.1,3.1,0,0,1,2.14-.66,3.32,3.32,0,0,1,2,.62A2.21,2.21,0,0,1,48.27,38H46.79a1.06,1.06,0,0,0-.6-.94,2,2,0,0,0-.91-.19,1.78,1.78,0,0,0-1,.24.78.78,0,0,0-.36.67.65.65,0,0,0,.36.6,5.12,5.12,0,0,0,1,.3l1.29.31a3.35,3.35,0,0,1,1.28.53A1.83,1.83,0,0,1,48.5,41a2.1,2.1,0,0,1-.78,1.67,3.25,3.25,0,0,1-2.2.67,3.59,3.59,0,0,1-2.29-.66,2.15,2.15,0,0,1-.84-1.8Z"/></g></g></svg>