<?xml version="1.0" encoding="utf-8"?>
<!-- Generator: Adobe Illustrator 22.0.1, SVG Export Plug-In . SVG Version: 6.00 Build 0)  -->
<svg version="1.1" id="Layer_1" xmlns="http://www.w3.org/2000/svg" xmlns:xlink="http://www.w3.org/1999/xlink" x="0px" y="0px"
	 viewBox="0 0 509.3 509.3" style="enable-background:new 0 0 509.3 509.3;" xml:space="preserve">
<style type="text/css">
	.st0{fill:#A0D755;}
	.st1{fill:#4F5565;}
	.st2{fill:#F1F3F7;}
	.st3{fill:#DEDEDF;}
	.st4{fill:#FCFCFD;}
	.st5{fill:#646B79;}
	.st6{fill:#00C3FF;}
	.st7{fill:#4484C5;}
</style>
<circle class="st0" cx="254.6" cy="254.6" r="254.6"/>
<polygon class="st1" points="459.1,204.8 296.7,204.8 258.7,185.8 50.2,185.8 50.2,377.7 459.1,377.7 "/>
<g>
	<path class="st2" d="M50.2,377.7v3.1c0,8.5,6.8,15.3,15.3,15.3h378.7c8.5,0,15.3-6.8,15.3-15.3v-3.1H50.2z"/>
	<path class="st2" d="M296.7,204.8h162.4v-76.6c0-8.5-6.8-15.3-15.3-15.3H198.4c-13.6,0-24.4,10.8-24.4,24.4H68.8
		c-10.2,0-18.6,8.5-18.6,18.6v29.5h208.9L296.7,204.8z"/>
</g>
<circle class="st3" cx="254.6" cy="284.8" r="111.6"/>
<circle class="st4" cx="254.6" cy="284.8" r="93.2"/>
<circle class="st5" cx="254.6" cy="284.8" r="80"/>
<circle class="st1" cx="254.6" cy="284.8" r="57.3"/>
<ellipse transform="matrix(0.1602 -0.9871 0.9871 0.1602 -67.2887 490.5536)" class="st6" cx="254.6" cy="284.8" rx="30.2" ry="30.2"/>
<path class="st7" d="M417.4,185.8h-71.5c-2.7,0-5.1-2.4-5.1-5.1v-47.5c0-2.7,2.4-5.1,5.1-5.1h71.5c2.7,0,5.1,2.4,5.1,5.1v47.5
	C422.5,183.4,420.1,185.8,417.4,185.8z"/>
<path class="st1" d="M144.1,118.3H91.9c-4.7,0-8.5,3.4-8.5,7.1v11.9h69.5v-11.9C152.9,121.7,148.9,118.3,144.1,118.3z"/>
</svg>
