<?xml version="1.0" encoding="utf-8"?>
<!-- Generator: Adobe Illustrator 22.0.1, SVG Export Plug-In . SVG Version: 6.00 Build 0)  -->
<svg version="1.1" id="Layer_1" xmlns="http://www.w3.org/2000/svg" xmlns:xlink="http://www.w3.org/1999/xlink" x="0px" y="0px"
	 viewBox="0 0 512 512" style="enable-background:new 0 0 512 512;" xml:space="preserve">
<style type="text/css">
	.st0{fill:#00C3FF;}
	.st1{fill:#A0D755;}
	.st2{fill:#EE2600;}
	.st3{fill:#FF5F52;}
	.st4{fill:#FFC473;}
	.st5{fill:#FFAA20;}
	.st6{fill:#FFDBA9;}
	.st7{fill:#FFA91F;}
	.st8{fill:#00ACEA;}
	.st9{fill:#0082D1;}
	.st10{fill:#FC5057;}
	.st11{fill:#FFD700;}
	.st12{fill:#FFFFFF;}
	.st13{fill:#D9D9DB;}
</style>
<g transform="matrix(1 -2.44929e-16 2.44929e-16 1 -1.13687e-13 0)">
	<circle class="st0" cx="256" cy="256" r="256"/>
	<path class="st1" d="M512,256c0-4-0.1-8-0.3-12L342.2,74.5c-19.7-21.6-48.2-35.2-79.7-35.2h-13.2c-49.4,0-91.1,33.2-103.9,78.5
		c-17-16.6-43.7-19.6-43.7-19.6s-2.2,23.6,8.1,43.1c-21.4,2.4-39.4,16.8-39.4,16.8l50.9,51.2l1.7,15.5c0.8,7.3,4.6,13.5,10.1,17.6
		v18c0,1.8,0.8,3.5,2,4.7l76.5,76.4V369h-44c-0.7,0-1.4,0-2.1,0s-1.4,0-2.1,0.1c-0.4,0-0.8,0-1.2,0.1c-0.1,0-0.1,0-0.2,0
		c-0.2,0-0.5,0-0.7,0.1h-0.1c-0.7,0.1-1.4,0.1-2.1,0.2c-0.1,0-0.3,0-0.4,0c-0.1,0-0.2,0-0.3,0h-0.1c-0.3,0-0.6,0.1-0.8,0.1
		c-0.1,0-0.2,0-0.4,0c-0.1,0-0.2,0-0.3,0c-0.5,0.1-0.9,0.1-1.4,0.2c-0.2,0-0.5,0.1-0.7,0.1c-0.1,0-0.1,0-0.2,0
		c-0.3,0-0.6,0.1-0.8,0.2c-0.1,0-0.3,0-0.4,0.1c-0.4,0.1-0.7,0.1-1.1,0.2c-0.4,0.1-0.7,0.1-1,0.2c-33.9,7.6-59.5,38-59.5,74.1v7.2
		c0.2,0.2,0.4,0.3,0.6,0.5c0.7,0.6,1.5,1.2,2.3,1.9c0.6,0.5,1.3,1,1.9,1.5c0.7,0.6,1.5,1.2,2.2,1.8l0,0
		c43.4,34,98.1,54.2,157.6,54.2C397.4,512,512,397.4,512,256z"/>
	<path class="st2" d="M70.4,158.1c0,0,44.7,54.1,87.3,9C125.2,114.2,70.4,158.1,70.4,158.1z"/>
	<path class="st3" d="M101.7,98.3c0,0-6.6,69.9,55.4,68.1C171.4,106,101.7,98.3,101.7,98.3z"/>
	<rect x="211.5" y="324.8" class="st4" width="89.1" height="112.4"/>
	<rect x="256" y="324.8" class="st5" width="44.5" height="112.4"/>
	<g>
		<path class="st6" d="M370.7,176.6C365.9,106.1,305.8,66.1,256,66.1s-109.9,40-114.7,110.5c-12.9,2.4-22,14.4-20.6,27.7l2.2,20.5
			c1.5,13.9,14.1,24,28,22.5l2.4-0.3c28.4,74,74.3,93.1,102.6,97.4c28.3-4.3,74.2-23.4,102.6-97.4l2.4,0.3
			c13.9,1.5,26.5-8.6,28-22.5l2.2-20.5C392.7,191,383.5,179,370.7,176.6z"/>
		<path class="st6" d="M391.2,204.2l-2.2,20.5c-1.5,13.9-14.1,24-28,22.5l-2.4-0.3c-28.4,74-74.3,93.1-102.6,97.4V88.8h66.5
			c25.6,18.7,45.4,48.5,48.1,87.7C383.5,179,392.7,191,391.2,204.2z"/>
	</g>
	<g>
		<path class="st4" d="M391.2,204.2l-2.2,20.5c-1.5,13.9-14.1,24-28,22.5l-2.4-0.3c-28.4,74-74.3,93.1-102.6,97.4V66.1
			c49.1,0,108.2,38.9,114.4,107.6c0.1,1,0.2,1.9,0.2,2.9C383.5,179,392.7,191,391.2,204.2z"/>
		<rect x="179.5" y="198.5" class="st4" width="59.1" height="25.6"/>
	</g>
	<polygon class="st7" points="256,198.5 256,279.9 281.6,279.9 281.6,224.1 337.4,224.1 337.4,198.5 	"/>
	<path class="st6" d="M420.5,444.9v7.2c-17.9,15-37.9,27.7-59.5,37.4c-1.4,0.6-2.7,1.2-4.1,1.8C326,504.6,291.8,512,256,512
		s-70-7.4-100.9-20.7c-1.4-0.6-2.7-1.2-4.1-1.8c-21.6-9.7-41.6-22.4-59.5-37.4v-7.2c0-36.1,25.6-66.5,59.5-74.1
		c0.3-0.1,0.7-0.1,1-0.2c0.4-0.1,0.7-0.1,1.1-0.2c0.1,0,0.3-0.1,0.4-0.1c0.3-0.1,0.6-0.1,0.8-0.2c0.1,0,0.1,0,0.2,0
		c0.2,0,0.5-0.1,0.7-0.1c0.5-0.1,0.9-0.1,1.4-0.2c0.1,0,0.2,0,0.3,0s0.2,0,0.4,0c0.3,0,0.5-0.1,0.8-0.1h0.1c0.1,0,0.2,0,0.3,0
		s0.3,0,0.4,0c0.7-0.1,1.4-0.1,2.1-0.2h0.1c0.2,0,0.5,0,0.7-0.1c0.1,0,0.1,0,0.2,0c0.4,0,0.8,0,1.2-0.1c0.7,0,1.4-0.1,2.1-0.1
		s1.4,0,2.1,0h177.1c0.6,0,1.2,0,1.8,0h0.3c0.1,0,0.3,0,0.4,0s0.2,0,0.2,0c0.5,0,1,0,1.5,0.1l0,0c0.4,0,0.8,0,1.2,0.1
		c0,0,0.1,0,0.2,0c0.2,0,0.5,0,0.7,0.1h0.1c0.7,0,1.4,0.1,2.1,0.2c0.1,0,0.3,0,0.4,0s0.2,0,0.3,0h0.1c0.3,0,0.5,0.1,0.8,0.1
		c0.1,0,0.2,0,0.4,0c0.1,0,0.2,0,0.2,0l0,0c0.7,0.1,1.4,0.2,2.1,0.3c0.1,0,0.1,0,0.2,0c0.3,0,0.6,0.1,0.8,0.2
		c0.4,0.1,0.9,0.2,1.3,0.2c0.3,0.1,0.5,0.1,0.8,0.2c0.1,0,0.3,0,0.4,0.1C394.9,378.4,420.5,408.8,420.5,444.9z"/>
	<path class="st4" d="M420.5,444.9v7.2c-17.9,15-37.9,27.7-59.5,37.4c-1.4,0.6-2.7,1.2-4.1,1.8C326,504.6,291.8,512,256,512V369
		h88.6c0.6,0,1.2,0,1.8,0h0.3c0.1,0,0.3,0,0.4,0s0.2,0,0.2,0c0.5,0,1,0,1.5,0.1l0,0c0.4,0,0.8,0,1.2,0.1c0,0,0.1,0,0.2,0
		c0.2,0,0.5,0,0.7,0.1h0.1c0.7,0,1.4,0.1,2.1,0.2c0.1,0,0.3,0,0.4,0s0.2,0,0.3,0h0.1c0.3,0,0.5,0.1,0.8,0.1c0.1,0,0.2,0,0.4,0
		c0.1,0,0.2,0,0.2,0l0,0c0.7,0.1,1.4,0.2,2.1,0.3c0.1,0,0.1,0,0.2,0c0.3,0,0.6,0.1,0.8,0.2c0.4,0.1,0.9,0.2,1.3,0.2
		c0.3,0.1,0.5,0.1,0.8,0.2c0.1,0,0.3,0,0.4,0.1C394.9,378.4,420.5,408.8,420.5,444.9z"/>
	<g>
		<path class="st8" d="M361,370.8v118.7c-1.4,0.6-2.7,1.2-4.1,1.8C326,504.6,291.8,512,256,512s-70-7.4-100.9-20.7
			c-1.4-0.6-2.7-1.2-4.1-1.8V370.8c0.4-0.1,0.7-0.2,1-0.2c0.4-0.1,0.7-0.1,1.1-0.2c0.7-0.1,1.4-0.3,2.1-0.4c0.5-0.1,0.9-0.1,1.4-0.2
			c0.1,0,0.2,0,0.3,0s0.2,0,0.4,0c0.4,0,0.9-0.1,1.3-0.2c0.1,0,0.3,0,0.4,0c0.7-0.1,1.4-0.1,2.1-0.2h0.1c0.2,0,0.5,0,0.7-0.1
			c0.1,0,0.1,0,0.2,0c0.4,0,0.8,0,1.2-0.1c0.7,0,1.4-0.1,2.1-0.1s1.4,0,2.1,0h44c0,24.6,19.9,44.5,44.5,44.5s44.5-19.9,44.5-44.5h44
			c0.6,0,1.2,0,1.8,0h0.3c0.1,0,0.3,0,0.4,0s0.2,0,0.2,0c0.5,0,1,0,1.5,0.1l0,0c0.4,0,0.8,0,1.2,0.1c0,0,0.1,0,0.2,0
			c0.2,0,0.5,0,0.7,0.1h0.1c0.2,0,0.5,0,0.7,0.1c0.4,0,0.8,0.1,1.2,0.1c0.1,0,0.1,0,0.2,0s0.3,0,0.4,0c0.2,0,0.4,0,0.6,0.1h0.1
			c0.2,0,0.4,0,0.6,0.1c0.1,0,0.2,0,0.4,0c0.1,0,0.2,0,0.2,0l0,0c0.5,0.1,0.9,0.1,1.4,0.2c0.3,0,0.6,0.1,0.9,0.1
			c0.5,0.1,0.9,0.2,1.4,0.3c0.2,0,0.4,0.1,0.6,0.1C360.1,370.6,360.5,370.7,361,370.8z"/>
		<path class="st8" d="M361,370.8v118.8c-1.4,0.6-2.7,1.2-4.1,1.8C326,504.6,291.8,512,256,512s-70-7.4-100.9-20.7
			c-1.4-0.6-2.7-1.2-4.1-1.8V370.8c0.3-0.1,0.7-0.1,1-0.2c0.4-0.1,0.7-0.1,1.1-0.2c0.1,0,0.3-0.1,0.4-0.1c0.3-0.1,0.6-0.1,0.8-0.2
			c0.1,0,0.1,0,0.2,0c0.2,0,0.5-0.1,0.7-0.1c0.5-0.1,0.9-0.1,1.4-0.2c0.1,0,0.2,0,0.3,0s0.2,0,0.4,0c0.3,0,0.5-0.1,0.8-0.1h0.1
			c0.1,0,0.2,0,0.3,0s0.3,0,0.4,0c0.7-0.1,1.4-0.1,2.1-0.2h0.1c0.2,0,0.5,0,0.7-0.1c0.1,0,0.1,0,0.2,0c0.4,0,0.8,0,1.2-0.1
			c0.7,0,1.4-0.1,2.1-0.1s1.4,0,2.1,0h44c0,24.6,19.9,44.5,44.5,44.5s44.5-19.9,44.5-44.5h44c0.6,0,1.2,0,1.8,0h0.3
			c0.1,0,0.3,0,0.4,0s0.2,0,0.2,0c0.5,0,1,0,1.5,0.1l0,0c0.4,0,0.8,0,1.2,0.1c0,0,0.1,0,0.2,0c0.2,0,0.5,0,0.7,0.1h0.1
			c0.2,0,0.5,0,0.7,0.1c0.4,0,0.8,0.1,1.2,0.1c0.1,0,0.1,0,0.2,0s0.3,0,0.4,0s0.2,0,0.3,0h0.1c0.3,0,0.5,0.1,0.8,0.1
			c0.1,0,0.2,0,0.4,0c0.1,0,0.2,0,0.2,0l0,0c0.7,0.1,1.4,0.2,2.1,0.3c0.1,0,0.1,0,0.2,0c0.3,0,0.6,0.1,0.8,0.2
			c0.4,0.1,0.9,0.2,1.3,0.2c0.3,0.1,0.5,0.1,0.8,0.2C360.7,370.7,360.9,370.8,361,370.8z"/>
	</g>
	<path class="st9" d="M361,370.8v118.7c-1.4,0.6-2.7,1.2-4.1,1.8C326,504.6,291.8,512,256,512v-98.5c24.6,0,44.5-19.9,44.5-44.5h44
		c0.1,0,0.1,0,0.2,0c0.5,0,1,0,1.6,0h0.1c0.2,0,0.4,0,0.6,0c0.1,0,0.2,0,0.2,0c0.2,0,0.4,0,0.6,0c0.3,0,0.6,0,0.9,0l0,0
		c1,0.1,1.9,0.1,2.8,0.2c0.4,0,0.8,0.1,1.2,0.1c0.4,0,0.8,0.1,1.2,0.1h0.1c0.4,0,0.8,0.1,1.2,0.2l0,0c0.5,0.1,0.9,0.1,1.4,0.2
		c0.3,0,0.6,0.1,0.9,0.1c0.5,0.1,0.9,0.2,1.4,0.3c0.2,0,0.4,0.1,0.6,0.1c0.3,0.1,0.6,0.1,1,0.2C360.7,370.7,360.9,370.8,361,370.8z"
		/>
	<path class="st10" d="M262.5,39.3h-13.2c-59.6,0-108,48.3-108,108v29.3h229.1v-29.3C370.4,87.7,322.1,39.3,262.5,39.3z"/>
	<path class="st3" d="M370.4,147.3c0-59.6-48.3-108-108-108H256v137.2h114.4V147.3z"/>
	<path class="st11" d="M139.7,267L139.7,267c-3.7,0-6.7-3-6.7-6.7v-24.6c0-3.7,3-6.7,6.7-6.7l0,0c3.7,0,6.7,3,6.7,6.7v24.6
		C146.4,264,143.4,267,139.7,267z"/>
	<g>
		<path class="st12" d="M215,386.3h-64v23h86.2C227.2,404.7,219.3,396.5,215,386.3z"/>
		<path class="st12" d="M274.8,409.3H361v-23h-64C292.7,396.5,284.8,404.7,274.8,409.3z"/>
		<rect x="151" y="438.8" class="st12" width="210" height="23"/>
		<path class="st12" d="M356.9,491.3C326,504.6,291.8,512,256,512s-70-7.4-100.9-20.7H356.9z"/>
	</g>
	<g>
		<path class="st13" d="M296.2,388.2c-0.1,0.3-0.3,0.5-0.4,0.8c-0.2,0.4-0.4,0.7-0.6,1.1c-0.2,0.3-0.3,0.6-0.5,0.9s-0.4,0.6-0.5,0.9
			c-0.2,0.3-0.4,0.6-0.6,0.9s-0.3,0.6-0.5,0.8c-0.2,0.3-0.4,0.6-0.7,1c-0.2,0.2-0.3,0.5-0.5,0.7c-0.2,0.3-0.5,0.7-0.8,1
			c-0.2,0.2-0.3,0.4-0.5,0.6c-0.3,0.3-0.6,0.7-0.8,1c-0.2,0.2-0.3,0.4-0.5,0.6c-0.3,0.3-0.6,0.7-0.9,1c-0.2,0.2-0.3,0.3-0.5,0.5
			c-0.3,0.3-0.7,0.7-1,1c-0.1,0.1-0.3,0.3-0.4,0.4c-0.4,0.3-0.7,0.7-1.1,1c-0.1,0.1-0.3,0.2-0.4,0.4c-0.4,0.3-0.8,0.7-1.2,1
			c-0.1,0.1-0.2,0.2-0.4,0.3c-0.4,0.3-0.9,0.7-1.3,1c-0.1,0.1-0.2,0.2-0.3,0.2c-0.5,0.3-0.9,0.6-1.4,1c-0.1,0.1-0.2,0.1-0.3,0.2
			c-0.5,0.3-1,0.6-1.5,0.9c-0.1,0-0.1,0.1-0.2,0.1c-0.5,0.3-1.1,0.6-1.6,0.9c0,0-0.1,0-0.1,0.1c-0.6,0.3-1.2,0.6-1.8,0.9l0,0H361
			v-23h-64C296.8,387,296.5,387.6,296.2,388.2z"/>
		<rect x="256" y="438.8" class="st13" width="105" height="23"/>
		<path class="st13" d="M356.9,491.3C326,504.6,291.8,512,256,512v-20.7H356.9z"/>
	</g>
</g>
</svg>
