<?xml version="1.0" encoding="iso-8859-1"?>
<!-- Generator: Adobe Illustrator 19.0.0, SVG Export Plug-In . SVG Version: 6.00 Build 0)  -->
<svg version="1.1" id="Layer_1" xmlns="http://www.w3.org/2000/svg" xmlns:xlink="http://www.w3.org/1999/xlink" x="0px" y="0px"
	 viewBox="0 0 512.001 512.001" style="enable-background:new 0 0 512.001 512.001;" xml:space="preserve">
<g>
	<rect x="43.635" y="222.568" style="fill:#F15A24;" width="118.382" height="66.876"/>
	<rect x="162.014" y="199.069" style="fill:#F15A24;" width="130.132" height="113.864"/>
	<rect x="292.146" y="174.673" style="fill:#F15A24;" width="159.954" height="162.667"/>
</g>
<g>
	<path style="fill:#FF931E;" d="M476.949,369.865L476.949,369.865c13.725,0,24.851-11.126,24.851-24.851V166.988
		c0-13.725-11.126-24.851-24.851-24.851l0,0c-13.725,0-24.851,11.126-24.851,24.851v178.025
		C452.098,358.739,463.224,369.865,476.949,369.865z"/>
	<path style="fill:#FF931E;" d="M26.918,310.222L26.918,310.222c9.233,0,16.719-7.485,16.719-16.719v-75.005
		c0-9.233-7.485-16.719-16.719-16.719l0,0c-9.233,0-16.719,7.485-16.719,16.719v75.005
		C10.199,302.737,17.684,310.222,26.918,310.222z"/>
</g>
<path d="M476.949,131.938c-18.479,0-33.653,14.378-34.95,32.532H292.147c-5.632,0-10.199,4.567-10.199,10.199v14.199h-119.93
	c-5.632,0-10.199,4.567-10.199,10.199v13.297H53.122c-2.783-11.896-13.471-20.785-26.204-20.785C12.075,191.581,0,203.656,0,218.498
	v75.006c0,14.843,12.075,26.918,26.918,26.918c12.733,0,23.42-8.889,26.204-20.785h98.697v13.297
	c0,5.632,4.567,10.199,10.199,10.199h119.931v14.199c0,5.632,4.567,10.199,10.199,10.199h149.853
	c1.296,18.155,16.471,32.532,34.95,32.532c19.326,0,35.051-15.724,35.051-35.051V166.99
	C512,147.662,496.276,131.938,476.949,131.938z M33.436,293.504c0,3.594-2.924,6.519-6.519,6.519s-6.518-2.925-6.518-6.519v-75.006
	c0-3.594,2.924-6.519,6.519-6.519s6.519,2.924,6.519,6.519v75.006H33.436z M53.834,279.238v-46.474h97.983v46.474H53.834z
	 M172.217,209.268h109.732v93.467H172.217V209.268z M302.346,184.87h139.553v142.263H302.346V184.87z M462.298,166.99
	c0-8.08,6.572-14.652,14.651-14.652c8.08,0,14.652,6.572,14.652,14.652v178.024c0,8.08-6.572,14.652-14.652,14.652
	c-8.079,0-14.651-6.572-14.651-14.652V166.99z"/>
<path d="M321.065,193.388c-5.632,0-10.199,4.567-10.199,10.199v70.487c0,5.632,4.567,10.199,10.199,10.199
	c5.632,0,10.199-4.567,10.199-10.199v-70.487C331.264,197.955,326.697,193.388,321.065,193.388z"/>
<path d="M321.065,291.89c-5.632,0-10.199,4.567-10.199,10.199v7.229c0,5.632,4.567,10.199,10.199,10.199
	c5.632,0,10.199-4.567,10.199-10.199v-7.229C331.264,296.456,326.697,291.89,321.065,291.89z"/>
<g>
</g>
<g>
</g>
<g>
</g>
<g>
</g>
<g>
</g>
<g>
</g>
<g>
</g>
<g>
</g>
<g>
</g>
<g>
</g>
<g>
</g>
<g>
</g>
<g>
</g>
<g>
</g>
<g>
</g>
</svg>
