<?xml version="1.0" encoding="utf-8"?>
<!-- Generator: Adobe Illustrator 22.0.1, SVG Export Plug-In . SVG Version: 6.00 Build 0)  -->
<svg version="1.1" id="Capa_1" xmlns="http://www.w3.org/2000/svg" xmlns:xlink="http://www.w3.org/1999/xlink" x="0px" y="0px"
	 viewBox="0 0 512 512" style="enable-background:new 0 0 512 512;" xml:space="preserve">
<style type="text/css">
	.st0{fill:#00C3FF;}
	.st1{fill:#00AAF0;}
	.st2{fill:#B4E66E;}
	.st3{fill:#A0D755;}
	.st4{fill:#FFD700;}
</style>
<path class="st0" d="M0,102.7v313.2c0,7.9,5.6,14.7,13.3,16.2l138.3,27.7c8.9,1.8,18.1,1.1,26.6-2l159.9-58.2
	c5.7-2.1,11.8-2.5,17.8-1.3l136.3,27.3c10.2,2,19.8-5.8,19.8-16.2V96.1c0-7.9-5.6-14.7-13.3-16.2L360.4,52.3
	c-8.9-1.8-18.1-1.1-26.6,2l-159.9,58.2c-5.7,2.1-11.8,2.5-17.8,1.3L19.8,86.5C9.5,84.5,0,92.3,0,102.7z"/>
<path class="st1" d="M498.7,79.9L360.5,52.3c-4.5-0.9-9.1-1.2-13.6-0.8v346.2c3-0.2,6.1-0.1,9.1,0.5l136.3,27.3
	c10.2,2,19.8-5.8,19.8-16.2V96.1C512,88.2,506.4,81.5,498.7,79.9z"/>
<path class="st2" d="M498.7,79.9L360.5,52.3c-8.9-1.8-18.1-1.1-26.6,2l-46.8,17c-13.2,24.1,0,52,22.7,62.2
	c34.2,15.4,87.5,32.5,95,64.7c6.9,29.6-24.8,70.2,24.8,74.3c47.1,3.9,42.1,60.4,82.6,46.6V96.1C512,88.2,506.4,81.5,498.7,79.9z"/>
<path class="st3" d="M498.7,79.9L360.5,52.3c-4.5-0.9-9.1-1.2-13.6-0.8v98.1c26.8,12.1,52.8,26.9,57.8,48.7
	c6.9,29.6-24.8,70.2,24.8,74.3c47.1,3.9,42.1,60.4,82.6,46.6V96.1C512,88.2,506.4,81.5,498.7,79.9z"/>
<path class="st2" d="M13.3,432.1l138.3,27.7c8.9,1.8,18.1,1.1,26.6-2l44-16l0.8-4c-24.8-66.1-102.3-0.5-90.8-57.8
	c8.3-41.3-24.8-82.6-57.8-74.3S37,280.3,33,264.3c-8.3-33-33-33-33-33v184.7C0,423.8,5.6,430.5,13.3,432.1z"/>
<path class="st1" d="M165.2,114.3c-3,0.2-6.1,0.1-9.1-0.5L19.8,86.5C9.5,84.5,0,92.3,0,102.7v313.2c0,7.9,5.6,14.7,13.3,16.2
	l138.3,27.7c4.5,0.9,9.1,1.2,13.6,0.8L165.2,114.3L165.2,114.3z"/>
<g>
	<path class="st2" d="M205.4,155.9c-19.7-6.6-57.8-8.3-74.3,16.5s0,49.5,33,49.5s41.3-16.5,49.5,0c8.3,16.5,41.3,16.5,41.3-8.3
		S230.2,164.1,205.4,155.9z"/>
	<path class="st2" d="M220.9,276.6c-7.8,2.6-24.8,33-8.3,41.3s41.3,0,41.3-16.5C253.9,293.2,245.7,268.4,220.9,276.6z"/>
</g>
<g>
	<path class="st4" d="M232.3,381.6c-0.2,0-0.3,0-0.5,0c-6.3-0.3-12.5-1.3-18.5-2.7c-4.4-1.1-7.1-5.6-6-10c1.1-4.4,5.5-7.1,10-6
		c4.9,1.2,10,2,15.4,2.3c4.5,0.2,8,4.1,7.8,8.7C240.3,378.2,236.7,381.6,232.3,381.6z"/>
	<path class="st4" d="M266.2,376.6c-3.5,0-6.8-2.3-7.9-5.8c-1.3-4.4,1.1-9,5.5-10.3c4.5-1.4,8.5-3.5,12-6.4
		c3.5-2.9,8.7-2.4,11.6,1.1c2.9,3.5,2.4,8.7-1.1,11.6c-5.2,4.3-11.1,7.5-17.7,9.5C267.8,376.4,267,376.6,266.2,376.6z"/>
	<path class="st4" d="M184.8,362.7c-1.7,0-3.5-0.5-5-1.7c-4.7-3.5-9.3-7.6-13.8-12.3c-3.2-3.3-3.1-8.5,0.2-11.7
		c3.3-3.2,8.5-3.1,11.7,0.2c3.8,4,7.8,7.5,11.8,10.5c3.6,2.7,4.4,7.9,1.6,11.6C189.8,361.6,187.3,362.7,184.8,362.7z"/>
	<path class="st4" d="M299.3,340.2c-0.9,0-1.9-0.2-2.8-0.5c-4.3-1.6-6.5-6.3-5-10.6c1.7-4.6,3.2-9.8,4.5-15.5c1-4.4,5.5-7.2,9.9-6.2
		c4.4,1,7.2,5.5,6.2,9.9c-1.5,6.4-3.2,12.1-5.1,17.4C305.9,338.1,302.7,340.2,299.3,340.2z"/>
</g>
<path class="st4" d="M151.2,324.2c-2.7,0-5.4-1.3-7-3.8c-3.1-4.9-6.2-10-9.1-15c-2.3-3.9-0.9-9,3-11.3c4-2.3,9-0.9,11.3,3
	c2.8,4.8,5.7,9.6,8.7,14.4c2.5,3.8,1.3,9-2.5,11.4C154.2,323.8,152.7,324.2,151.2,324.2z"/>
<path class="st4" d="M309.9,289.9c-0.4,0-0.7,0-1.1-0.1c-4.5-0.6-7.7-4.7-7.1-9.3c0.7-5.6,1.4-11.2,2.1-16.9
	c0.5-4.5,4.6-7.8,9.2-7.2c4.5,0.5,7.8,4.6,7.2,9.2c-0.7,5.8-1.4,11.5-2.1,17.1C317.6,286.9,314,289.9,309.9,289.9z"/>
<path class="st4" d="M125.4,279.7c-2.8,0-5.6-1.5-7.1-4.1c-3.2-5.5-6.1-10.1-8.8-14c-2.6-3.8-1.6-8.9,2.1-11.5
	c3.8-2.6,8.9-1.6,11.5,2.1c2.9,4.2,6,9.2,9.5,15c2.3,3.9,1,9-2.9,11.3C128.3,279.3,126.8,279.7,125.4,279.7z"/>
<path class="st4" d="M316.2,238.8c-0.4,0-0.8,0-1.2-0.1c-4.5-0.6-7.7-4.8-7-9.3c0.8-5.8,1.8-11.6,2.8-17.3c0.8-4.5,5.2-7.5,9.6-6.6
	c4.5,0.8,7.4,5.1,6.6,9.6c-1,5.5-1.9,11-2.7,16.6C323.8,235.8,320.3,238.8,316.2,238.8z"/>
<g>
	<path class="st4" d="M95.8,237.8c-2.4,0-4.8-1-6.4-3c-3.8-4.7-7.4-8.7-10.9-12.4c-3.2-3.3-3-8.5,0.3-11.7c3.3-3.1,8.5-3,11.7,0.3
		c3.8,4,7.6,8.3,11.7,13.3c2.9,3.5,2.4,8.7-1.2,11.6C99.5,237.1,97.6,237.8,95.8,237.8z"/>
	<path class="st4" d="M57.8,203.6c-1.3,0-2.7-0.3-4-1c-4.6-2.5-9.3-4.5-14-5.8c-4.4-1.2-7-5.7-5.8-10.1c1.2-4.4,5.8-7,10.1-5.8
		c6,1.6,11.9,4.1,17.6,7.2c4,2.2,5.5,7.2,3.2,11.2C63.5,202,60.7,203.6,57.8,203.6z"/>
</g>
<path class="st4" d="M327.5,188.7c-0.9,0-1.9-0.2-2.8-0.5c-4.3-1.5-6.5-6.2-5-10.5c2.1-6,4.6-11.7,7.2-16.8c2.1-4,7.1-5.6,11.1-3.5
	c4,2.1,5.6,7.1,3.5,11.1c-2.3,4.4-4.4,9.4-6.3,14.7C334.1,186.6,330.9,188.7,327.5,188.7z"/>
<g>
	<path class="st4" d="M355.7,146.7c-2.5,0-5-1.1-6.6-3.3c-2.8-3.6-2.1-8.8,1.6-11.6c5-3.8,10.6-7,16.5-9.5c4.2-1.8,9,0.2,10.8,4.4
		c1.8,4.2-0.2,9-4.4,10.8c-4.6,2-9,4.4-12.9,7.4C359.2,146.2,357.5,146.7,355.7,146.7z"/>
	<path class="st4" d="M412.9,132.1c-0.2,0-0.3,0-0.5,0c-2.7-0.1-5.1-0.2-7.8-0.2c0,0,0,0,0,0c-4.5,0-8.2-3.7-8.3-8.2
		c0-4.6,3.6-8.3,8.2-8.3c2.8,0,5.8,0.1,8.8,0.2c4.5,0.3,8,4.1,7.8,8.7C420.9,128.7,417.3,132.1,412.9,132.1z"/>
	<path class="st4" d="M0,198.2c0.7,0,1.5-0.1,2.2-0.3c2.5-0.7,5-1.3,7.4-1.8c4.5-0.9,7.4-5.2,6.5-9.7c-0.9-4.5-5.2-7.4-9.7-6.5
		c-2.1,0.4-4.3,1-6.5,1.5C0,181.5,0,198.2,0,198.2z"/>
	<path class="st4" d="M474.1,123.9l10.7-10.7c3.2-3.2,3.2-8.5,0-11.7s-8.5-3.2-11.7,0l-10.7,10.7l-10.7-10.7
		c-3.2-3.2-8.5-3.2-11.7,0s-3.2,8.5,0,11.7l10.7,10.7l-10.7,10.7c-3.2,3.2-3.2,8.5,0,11.7c1.6,1.6,3.7,2.4,5.8,2.4s4.2-0.8,5.8-2.4
		l10.7-10.7l10.7,10.7c1.6,1.6,3.7,2.4,5.8,2.4s4.2-0.8,5.8-2.4c3.2-3.2,3.2-8.5,0-11.7L474.1,123.9z"/>
</g>
<g>
	<path class="st3" d="M13.3,432.1l138.3,27.7c4.5,0.9,9.1,1.2,13.6,0.8v-55.1c-21.6,0.9-38.9,3.6-33-25.6
		c8.3-41.3-24.8-82.6-57.8-74.3S37,280.3,33,264.3c-8.3-33-33-33-33-33v184.7C0,423.8,5.6,430.5,13.3,432.1z"/>
	<path class="st3" d="M454.2,363.4c-12.3,6-20,16.8-45.4,8.9c-28.9-8.9-37.2,15.8-37.8,26.8v2.1l121.3,24.3
		c10.2,2,19.8-5.8,19.8-16.2v-12.9C512,379.9,482.4,349.6,454.2,363.4z"/>
	<path class="st3" d="M165.2,221.9v-69.2c-13.4,2.1-26.2,7.9-34.1,19.7c-16.5,24.8,0,49.5,33,49.5
		C164.5,221.9,164.8,221.9,165.2,221.9z"/>
</g>
</svg>
