<svg xmlns="http://www.w3.org/2000/svg" viewBox="0 0 65 65"><defs><style>.cls-1{fill:#fff;}.cls-2{fill:#ff5f52;}.cls-3{fill:#bd493f;}.cls-4{fill:#bb483e;}.cls-5{fill:#7d302a;}.cls-6{fill:#ff7469;}.cls-7{fill:#efefef;}.cls-8{fill:#dcdcdc;}.cls-9{fill:#b5b5b5;}</style></defs><title>troc</title><g id="Layer_2" data-name="Layer 2"><g id="Layer_1-2" data-name="Layer 1"><circle class="cls-1" cx="32.5" cy="32.5" r="32.5"/><path class="cls-2" d="M8.68,21.37,32.06,33.06,55.44,21.37V46.31L32.06,58,8.68,46.31Z"/><path class="cls-3" d="M32.05,58l0-24.94L10.26,22.14H8.7l0,24.16Z"/><path class="cls-4" d="M8.68,23.71V31L32,42.41l.08,0V35.17Z"/><path class="cls-5" d="M8.68,23.71V31L32,42.41,55.44,31V23.71L32.06,35.17Z"/><path class="cls-6" d="M7.12,20.55,32.06,8.12,57,20.55v1.64L32.06,34.62,7.12,22.23Z"/><path class="cls-2" d="M7.12,20.59l24.94,12.2L57,20.59v8.07L32,40.86,7.12,28.66Z"/><path class="cls-7" d="M46.36,12.06a5.13,5.13,0,0,0-4.63-2.38c-4.72,0-8,4.41-9.67,7.21-1.63-2.8-5-7.17-9.66-7.17-3,0-5.15,1.83-5.15,4.33,0,4.44,4.88,7.32,14.66,7.32s15-3.7,15-7.28A4.11,4.11,0,0,0,46.36,12.06ZM23.41,16.85a2.85,2.85,0,0,1-1.48-2.1c0-.66.62-1.17,1.52-1.17,2.1,0,3.78,2.77,4.72,4.68A10.07,10.07,0,0,1,23.41,16.85Zm17.3,0A10.06,10.06,0,0,1,36,18.26c.89-1.91,2.57-4.68,4.71-4.68.9,0,1.52.51,1.52,1.17A2.85,2.85,0,0,1,40.71,16.85Z"/><path class="cls-7" d="M41.41,29.28v-.89l-9.35-5.07-9.35,5.07v.89l-6.23-2.72V25.31l15.27-8.07.31.16.31-.16,15.28,8v1.25Z"/><path class="cls-8" d="M41.41,28.39v24.9l6.24-3.12V25.27Z"/><path class="cls-9" d="M16.56,50.23l6.25,3.07-.18-24.9-6.26-3.11Z"/></g></g></svg>